<svg width="60" height="40" viewBox="0 0 60 40" fill="none" xmlns="http://www.w3.org/2000/svg">
  <rect width="60" height="40" rx="4" fill="#006FCF"/>
  <path d="M15 16L13 24H16L15.5 22H17L17.5 24H20.5L18.5 16H15ZM16 18.5L16.5 20.5H15.5L16 18.5Z" fill="white"/>
  <path d="M21 16L19 24H22L21.5 21.5L23 24H25L26.5 21.5L26 24H29L31 16H28L26.5 19.5L25 16H21Z" fill="white"/>
  <path d="M32 16V18H35V19H32V20H35V21H32V22H35V23H32V24H38V22.5H35.5V21.5H38V20H35.5V19H38V17.5H35.5V16H32Z" fill="white"/>
  <path d="M40 16L39 18.5L38 16H35L37 20L35 24H38L39 21.5L40 24H43L41 20L43 16H40Z" fill="white"/>
</svg>
