<svg width="60" height="40" viewBox="0 0 60 40" fill="none" xmlns="http://www.w3.org/2000/svg">
  <rect width="60" height="40" rx="4" fill="white"/>
  <rect x="0.5" y="0.5" width="59" height="39" rx="3.5" stroke="#E5E7EB"/>
  <path d="M0 20C0 8.95 8.95 0 20 0H60V40H20C8.95 40 0 31.05 0 20Z" fill="#FF6000"/>
  <circle cx="45" cy="20" r="8" fill="#F9A533"/>
  <path d="M15 16H17.5C19.5 16 21 17.5 21 19.5C21 21.5 19.5 23 17.5 23H16V24H14V16H15ZM16 18V21H17.5C18.3 21 19 20.3 19 19.5C19 18.7 18.3 18 17.5 18H16Z" fill="white"/>
</svg>
