<svg width="60" height="40" viewBox="0 0 60 40" fill="none" xmlns="http://www.w3.org/2000/svg">
  <rect width="60" height="40" rx="4" fill="white"/>
  <rect x="0.5" y="0.5" width="59" height="39" rx="3.5" stroke="#E5E7EB"/>
  <path d="M15 12H20C22 12 23 13 23 15V25C23 27 22 28 20 28H15V12Z" fill="#0E4C96"/>
  <path d="M25 12H30C32 12 33 13 33 15V25C33 27 32 28 30 28H25V12Z" fill="#D71920"/>
  <path d="M35 12H40C42 12 43 13 43 15V25C43 27 42 28 40 28H35V12Z" fill="#5CB85C"/>
  <path d="M17 18V22H18.5C19.3 22 20 21.3 20 20.5V19.5C20 18.7 19.3 18 18.5 18H17Z" fill="white"/>
  <path d="M27 18V22H28.5C29.3 22 30 21.3 30 20.5V19.5C30 18.7 29.3 18 28.5 18H27Z" fill="white"/>
  <path d="M37 18V22H38.5C39.3 22 40 21.3 40 20.5V19.5C40 18.7 39.3 18 38.5 18H37Z" fill="white"/>
</svg>
