<svg width="60" height="40" viewBox="0 0 60 40" fill="none" xmlns="http://www.w3.org/2000/svg">
  <rect width="60" height="40" rx="4" fill="white"/>
  <rect x="0.5" y="0.5" width="59" height="39" rx="3.5" stroke="#E5E7EB"/>
  <path d="M23.5 13L20.5 27H17.5L20.5 13H23.5ZM32.5 22.5L34.5 17L35.5 22.5H32.5ZM37 27H40L37.5 13H35C34.5 13 34 13.3 33.8 13.8L29 27H32L32.7 25H36.5L37 27ZM28 21C28 18 23.5 18.2 23.5 16.5C23.5 16 24 15.5 25 15.4C26 15.3 27.5 15.5 28.5 16L29 13.5C28 13.2 26.8 13 25.5 13C22.5 13 20.5 14.5 20.5 16.8C20.5 18.5 22 19.5 23.2 20C24.5 20.5 25 21 25 21.5C25 22.3 24 22.7 23 22.7C21.5 22.7 20.7 22.5 19.5 22L19 24.5C20 25 21.5 25.3 23 25.3C26.2 25.3 28 23.8 28 21.5V21Z" fill="#1434CB"/>
</svg>
