<svg width="147" height="41" viewBox="0 0 147 41" fill="none" xmlns="http://www.w3.org/2000/svg">
<g clip-path="url(#clip0_498_4877)">
<path fill-rule="evenodd" clip-rule="evenodd" d="M8.26241 5.66781L13.6268 20.515L19.2995 5.66781H27.3153L13.6268 40.0443H5.6727L9.74225 29.3864L0 5.66781H8.26241ZM92.983 5.11335C100.197 5.11335 105.5 10.7196 105.5 18.4204C105.5 26.1212 100.197 31.7274 92.983 31.7274C90.3316 31.7274 88.0502 31.0498 86.3237 29.6328L86.2004 29.5712L86.0771 29.5096V40.0443H78.3696V5.66781H85.2138V8.25529L85.2755 8.19369C86.9403 6.28388 89.53 5.23657 92.6747 5.17496H92.8596L92.983 5.11335ZM41.3737 5.11335C49.3278 5.11335 55.0005 10.5963 55.0005 18.4204C55.0005 26.1828 49.3278 31.7274 41.3737 31.7274C33.3579 31.7274 27.6852 26.1828 27.6852 18.4204C27.7469 10.5963 33.3579 5.11335 41.3737 5.11335ZM67.8874 0V5.66781H74.2384V12.3213H67.8874V21.5007C67.8874 23.5337 68.874 24.7043 70.7238 24.7659H70.7854H70.8471C72.0803 24.7659 73.0052 24.4578 73.8684 23.657L73.9301 23.5954L74.1151 23.4105H74.1767V30.7417L73.9301 30.8649C72.6352 31.481 71.8953 31.7274 69.6756 31.7274C63.5712 31.7274 60.18 28.4007 60.0566 22.1784V21.9936V21.8088V12.3213H57.2819V5.66781H60.3033V0H67.8874ZM122.333 5.11335C130.287 5.11335 135.96 10.5963 135.96 18.4204C135.96 26.1828 130.287 31.7274 122.333 31.7274C114.317 31.7274 108.645 26.1828 108.645 18.4204C108.706 10.5963 114.317 5.11335 122.333 5.11335ZM142.311 23.2873C144.654 23.2873 146.565 25.1971 146.565 27.5382C146.565 29.8792 144.654 31.789 142.311 31.789C139.968 31.789 138.056 29.8792 138.056 27.5382C138.056 25.1971 139.968 23.2873 142.311 23.2873ZM91.8114 12.0749C88.3585 12.0749 85.9537 14.6624 85.9537 18.4204C85.9537 22.24 88.2968 24.7659 91.8114 24.7659C95.326 24.7659 97.7308 22.1784 97.7308 18.4204C97.6691 14.6008 95.326 12.0749 91.8114 12.0749ZM41.3737 12.0749C37.8591 12.0749 35.4544 14.6624 35.4544 18.4204C35.4544 22.1784 37.8591 24.7659 41.3737 24.7659C44.8267 24.7659 47.2314 22.1784 47.2314 18.4204C47.2314 14.6624 44.8267 12.0749 41.3737 12.0749ZM122.333 12.0749C118.818 12.0749 116.414 14.6624 116.414 18.4204C116.414 22.1784 118.818 24.7659 122.333 24.7659C125.786 24.7659 128.191 22.1784 128.191 18.4204C128.191 14.6624 125.786 12.0749 122.333 12.0749Z" fill="#0042E4"/>
</g>
<defs>
<clipPath id="clip0_498_4877">
<rect width="146.504" height="40.0443" fill="white"/>
</clipPath>
</defs>
</svg>
