<svg preserveAspectRatio="none" width="100%" height="100%" overflow="visible" style="display: block;" viewBox="0 0 167.475 24" fill="none" xmlns="http://www.w3.org/2000/svg">
<g id="Group">
<path id="Vector" fill-rule="evenodd" clip-rule="evenodd" d="M78.1708 24H85.5151V22.2L84.2742 22.0667C83.57 22 83.4023 21.9 83.4023 19.8V7.40002L78.2714 8.00002V9.66669L79.0092 9.80002C79.9482 9.96669 80.3171 10.2667 80.3171 11.6V19.7667C80.3171 21.8 80.1829 21.9334 79.2775 22.0334L78.1373 22.1667L78.1708 24Z" fill="var(--fill-0, #D81E05)"/>
<g id="Vector_2">
</g>
<path id="Vector_3" fill-rule="evenodd" clip-rule="evenodd" d="M81.4908 0.666667C80.3171 0.666667 79.5793 1.36667 79.5793 2.5C79.5793 3.66667 80.2836 4.36667 81.4908 4.36667C82.6981 4.36667 83.4024 3.7 83.4024 2.5C83.4359 1.33333 82.6981 0.666667 81.4908 0.666667ZM7.14302 14L10.3289 5.36667L13.4141 14H7.14302ZM20.859 21.8C20.0206 21.6333 19.7858 21.4333 19.1487 19.5333L11.9386 0H10.1612L2.61576 19.8333C2.1798 21.1 1.94505 21.6 1.00606 21.7667L0 21.9V23.6667H6.70707V21.9L4.32606 21.6667L6.33818 16.1667H14.1854L16.164 21.6333L13.8166 21.9V23.6667H21.798V21.9L20.859 21.8ZM65.528 23.6667H73.3753V21.9667L71.4638 21.7333C70.7931 21.6667 70.6254 21.5667 70.6254 19.5333V11.6L70.6589 11.5667C71.1955 10.8667 72.168 10.3667 73.0064 10.3667C74.0795 10.3667 75.0856 10.6 75.924 11.0333V7.46667C75.4545 7.3 74.9179 7.2 74.4149 7.2C73.0064 7.2 71.7321 7.9 70.4913 9.33333L70.3571 9.5L70.0218 7.56667H65.3939V9.56667L66.2323 9.7C67.1377 9.86667 67.5401 10.1667 67.5401 11.5333V19.5333C67.5401 21.6 67.3725 21.7 66.5006 21.8L65.528 21.9V23.6667ZM62.9123 20.9333C62.1074 21.3333 61.269 21.5667 60.4977 21.5667C59.4917 21.5667 58.8545 21.1667 58.8545 19.1333V9.7H62.7111V7.53333H58.8545V3.73333H56.9765L55.9705 7.53333H53.4888V9.7H55.7692V19.5667C55.7692 22.5667 56.9765 24 59.4581 24C61.4367 24 62.9793 23.1667 63.7171 22.6667L63.8513 22.5667L63.0799 20.8333L62.9123 20.9333ZM38.3644 21.9333L37.4254 21.7667C36.52 21.6 36.1175 21.3 36.1175 19.9333V7.53333H30.9196V9.53333L31.758 9.66667C32.6634 9.83333 33.0658 10.1333 33.0658 11.5V19.9333L33.0323 20C31.6909 20.8 30.2824 21.3 29.1757 21.3C27.3984 21.3 26.5264 20.2333 26.5264 18.0333V7.53333H21.3285V9.53333L22.1333 9.66667C23.0388 9.83333 23.4412 10.1333 23.4412 11.5V18.3333C23.4412 20.9333 24.246 24 28.1361 24C29.947 24 31.5232 23.3333 33.267 21.8333L33.4012 21.7333L33.7365 23.6667H38.3979L38.3644 21.9333ZM95.911 18.6667C95.911 20.4333 94.6702 21.6 92.8593 21.6C91.7526 21.6 90.4448 21.2 90.4448 19.3C90.4448 17.2 91.7862 16.4667 95.8104 16.3667H95.911V18.6667ZM100.941 21.9L99.9688 21.7667C99.0634 21.6667 98.9292 21.5667 98.9292 20.3333V12.7333C98.9292 8.9 97.5207 7.2 93.9324 7.2C91.585 7.2 89.4387 8.03333 88.2314 8.83333L88.0973 8.9L88.768 10.7L88.9357 10.6333C90.6795 9.9 91.7526 9.66667 93.3623 9.66667C95.3074 9.66667 95.8775 10.5 95.8775 12.7667V14.2667H95.7769C90.4448 14.5 87.1248 15.4667 87.1248 19.5C87.1248 21.5333 87.9632 23.9333 91.8868 23.9333C94.3013 23.9333 95.6427 22.6667 96.0787 22.1L96.1793 21.9667L96.2464 22.1333C96.6488 23.3333 97.5207 23.9333 98.9292 23.9333C99.667 23.9333 100.271 23.8 100.908 23.5333L100.941 21.9ZM46.3794 13.9C44.7361 13.4333 43.3947 12.9667 43.3947 11.5C43.3947 10.1333 44.4343 9.4 46.4129 9.4C48.1903 9.4 48.4585 9.86667 48.6262 10.4L49.0957 12.2667H51.2755V8.26667C50.2024 7.6 48.425 7.2 46.6141 7.2C42.9588 7.2 40.5777 9.13333 40.5777 12.1C40.5777 15.1667 42.8246 15.9333 44.9373 16.5C45.0715 16.5333 45.7086 16.7 45.8763 16.7333C47.5531 17.2 48.928 17.7 48.928 19.3333C48.928 21.3667 47.1842 21.7667 45.7422 21.7667C43.4953 21.7667 43.1935 21.2333 43.0258 20.6L42.5899 18.4H40.4101V22.8C41.4161 23.3333 43.1264 23.9667 45.5745 23.9667C48.6262 23.9667 51.8456 22.5667 51.8456 18.6667C51.8456 15.6 49.4646 14.7333 47.3183 14.1333C47.1507 14.1333 46.5135 13.9667 46.3794 13.9ZM112.679 23.6667H119.855V21.9L118.614 21.7333C117.743 21.6333 117.575 21.4667 117.575 19.5V12.9C117.575 9.13333 115.965 7.2 112.779 7.2C110.398 7.2 108.755 8.36667 107.615 9.33333L107.481 9.43333L107.246 7.5H102.719V9.53333L103.389 9.66667C104.295 9.83333 104.697 10.1333 104.697 11.5V19.4667C104.697 21.4667 104.563 21.6 103.658 21.7L102.517 21.8333V23.6667H109.661V21.9L108.654 21.7667C107.816 21.6333 107.749 21.5 107.749 19.5V11.2333L107.783 11.2C109.124 10.3667 110.532 9.9 111.706 9.9C113.584 9.9 114.456 10.9333 114.456 13.1V19.6667C114.456 21.4667 114.389 21.6667 113.651 21.7667L112.612 21.9V23.6667M130.318 20C135.852 15.5667 139.775 11.7333 140.949 9.66667C141.452 8.86667 141.62 8.1 141.318 7.5C140.815 6.33333 138.97 6 136.757 6.43333C146.784 4.16667 157.012 2.8 167.274 2.36667C167.375 2.36667 167.475 2.43333 167.475 2.53333C167.475 2.6 167.442 2.7 167.341 2.7C154.33 6.9 142.492 13.7 132.465 22.5L132.431 22.5333L125.858 23.6667C125.757 23.6667 125.724 23.5667 125.791 23.5C127.3 22.3667 128.809 21.1667 130.318 20Z" fill="var(--fill-0, #D81E05)"/>
<path id="Vector_4" fill-rule="evenodd" clip-rule="evenodd" d="M129.413 8.13331C129.279 8.16664 129.111 8.19998 128.977 8.26664C128.876 8.29998 128.91 8.39998 128.977 8.43331L131.458 8.79998L135.785 9.39998C135.818 9.39998 135.818 9.39998 135.818 9.39998C138.87 7.96664 140.882 7.39998 141.351 8.03331C141.486 8.23331 141.452 8.53331 141.318 8.89998C141.251 9.03331 141.184 9.16664 141.117 9.33331C141.586 8.56664 141.754 7.86664 141.486 7.26664C140.983 6.16664 139.272 5.83331 137.092 6.26664C134.544 6.79998 131.962 7.43331 129.413 8.13331Z" fill="var(--fill-0, #93282C)"/>
</g>
</svg>
