<svg preserveAspectRatio="none" width="100%" height="100%" overflow="visible" style="display: block;" viewBox="0 0 119.836 24" fill="none" xmlns="http://www.w3.org/2000/svg">
<g id="Group">
<path id="Vector" d="M95.49 17.3748C92.9714 17.3748 91.0125 15.6025 91.0125 12.0578C91.0125 8.51308 93.0647 6.64746 95.49 6.74074C97.9153 6.74074 99.8742 8.88621 99.8742 12.0578C99.8742 15.2293 98.0086 17.3748 95.49 17.3748ZM95.49 9.16605C94.4639 9.16605 93.6244 10.3787 93.7176 12.0578C93.7176 13.7368 94.4639 14.8562 95.49 14.8562C96.5161 14.8562 97.1691 13.7368 97.2623 12.0578C97.2623 10.3787 96.5161 9.16605 95.49 9.16605ZM85.1358 7.67355H87.0014L87.3745 9.16605C87.7476 8.04668 88.9603 7.30043 90.173 7.58027V10.472L87.6544 10.6586V17.3748H85.1358V7.67355ZM58.4573 7.67355H60.3229L60.696 9.16605C61.0691 8.04668 62.2818 7.30043 63.4945 7.58027V10.472L60.9759 10.6586V17.3748H58.364L58.4573 7.67355ZM64.987 17.3748V4.50198H72.4495V6.74074H68.0652V9.81902H71.7965V11.9645H68.0652V15.0428H72.5428V17.3748H64.987ZM48.4761 17.3748L47.9165 15.1361H44.2785L43.7188 17.3748H40.6405L44.0919 4.4087H48.1963L51.741 17.3748H48.4761ZM46.1441 7.48699L44.9314 12.3376H47.2635L46.1441 7.48699ZM114.799 17.3748C113.213 17.4681 112.561 16.6286 112.094 15.789C111.628 14.9495 111.628 14.2033 111.814 13.457C112.187 11.8712 113.4 11.0317 115.639 10.9384L116.945 10.8451C116.945 9.63246 116.198 8.97949 115.359 8.97949C114.426 8.97949 113.68 9.25934 112.84 9.63246L112.187 7.76683C113.68 7.02058 114.519 6.83402 115.732 6.74074C116.665 6.74074 117.598 6.9273 118.437 7.39371C119.557 8.23324 119.836 9.07277 119.836 10.1922V17.095H117.878L117.318 15.9756C116.758 16.8151 115.825 17.2815 114.799 17.3748ZM114.426 13.5503C114.053 14.11 114.24 14.4831 114.519 14.8562C115.359 15.789 116.292 15.2293 117.038 14.4831V12.7107C115.546 12.6175 114.799 12.9906 114.426 13.5503ZM76.927 17.3748C75.9942 17.1883 75.4345 16.7218 75.0614 16.0689C74.7815 15.5092 74.6882 14.9495 74.6882 11.4048V7.58027H77.3934V13.6436C77.3934 14.7629 78.1396 15.3226 78.7926 15.3226C79.4456 15.3226 80.0053 14.7629 80.0053 13.6436V7.48699H82.8037V17.3748H80.6582L80.2851 16.1622C79.896 16.6596 79.3746 17.0373 78.7806 17.2518C78.1866 17.4663 77.5441 17.5089 76.927 17.3748ZM104.725 20.4531H102.113V6.9273H104.165L104.445 8.04668C104.676 7.69862 104.978 7.40295 105.33 7.17882C105.683 6.95468 106.079 6.80706 106.492 6.74551C106.905 6.68396 107.327 6.70986 107.729 6.82151C108.132 6.93317 108.507 7.12811 108.829 7.39371C109.379 7.89058 109.769 8.54007 109.949 9.25934C110.415 11.0317 110.415 12.804 110.042 14.5764C109.838 15.3661 109.381 16.0674 108.741 16.5728C108.101 17.0782 107.313 17.3599 106.497 17.3748C105.844 17.3748 105.191 17.1883 104.725 16.9084V20.4531ZM105.938 8.97949C105.471 8.97949 105.005 9.16605 104.725 9.53918V14.7629C105.005 15.1361 105.378 15.4159 105.844 15.3226C107.71 14.9495 107.71 13.457 107.617 11.9645C107.617 9.91231 107.057 9.16605 105.938 8.97949ZM5.00699 23.9045C0.0630714 23.1583 -0.963024 16.0689 0.809323 10.0989C2.67495 4.12886 7.99199 -1.74787 15.7344 0.677444C16.8756 1.16331 17.8951 1.89603 18.7194 2.82292C20.9581 0.770725 22.4506 0.211037 26.555 0.0244741C30.7527 -0.25537 33.178 1.8901 33.0847 5.15495C32.9914 8.4198 31.3124 8.88621 28.9803 10.7518C26.4743 12.5826 23.8224 14.2049 21.0514 15.6025V13.0839C23.4767 11.2182 27.3013 9.16605 28.0475 6.36761C28.3273 4.78183 28.0475 2.63635 25.6222 2.54307C24.0364 2.54307 22.6372 3.38261 21.7044 4.59526C19.4179 7.79289 18.2983 11.6785 18.5328 15.6025C18.8126 17.7479 19.932 20.4531 22.1708 20.3598C25.902 19.5203 27.5811 18.4942 30.5661 16.5353L31.7788 18.4009C28.5139 21.1994 25.3423 24.0911 20.8648 23.9978C17.5067 23.9978 14.9881 23.065 13.8687 20.3598C11.3501 22.3187 8.92481 24.4642 5.00699 23.9045ZM11.3501 2.82292C9.91781 3.70989 8.70418 4.90872 7.7997 6.33004C6.89522 7.75137 6.32323 9.35852 6.12637 11.0317C5.65996 13.8301 5.56668 17.4681 7.61887 19.427C9.20465 20.3598 11.63 18.5875 13.4023 17.3748C12.7493 12.9906 14.3351 9.4459 15.2679 5.52808C15.2679 2.63635 13.7754 1.79682 11.3501 2.82292Z" fill="var(--fill-0, #006FDE)"/>
<path id="Vector_2" d="M56.1252 7.487H53.2335V17.3748H56.1252V7.487Z" fill="var(--fill-0, #006FDE)"/>
<path id="Vector_3" d="M54.6327 6.64748C55.457 6.64748 56.1252 5.97926 56.1252 5.15498C56.1252 4.33069 55.457 3.66248 54.6327 3.66248C53.8084 3.66248 53.1402 4.33069 53.1402 5.15498C53.1402 5.97926 53.8084 6.64748 54.6327 6.64748Z" fill="var(--fill-0, #006FDE)"/>
</g>
</svg>
